<svg xmlns="http://www.w3.org/2000/svg" width="640" height="360" viewBox="0 0 640 360">
  <defs>
    <radialGradient id="bulb4" cx="50%" cy="50%" r="55%">
      <stop offset="0%" stop-color="#ffdf9a" stop-opacity="0.85"/>
      <stop offset="40%" stop-color="#f0a94a" stop-opacity="0.28"/>
      <stop offset="100%" stop-color="#f0a94a" stop-opacity="0"/>
    </radialGradient>
  </defs>
  <rect width="640" height="360" fill="#0e1430"/>
  <rect y="286" width="640" height="74" fill="#080d22"/>
  <rect x="318" y="0" width="4" height="66" fill="#20264a"/>
  <circle cx="320" cy="150" r="155" fill="url(#bulb4)"/>
  <circle cx="320" cy="78" r="12" fill="#ffe9b0" stroke="#ffd27a" stroke-width="3"/>
  <rect x="150" y="250" width="340" height="18" rx="4" fill="#1a2044"/>
  <!-- scattered bills -->
  <g fill="#c9d2ea">
    <rect x="176" y="238" width="34" height="20" rx="2" transform="rotate(-8 193 248)"/>
    <rect x="404" y="240" width="34" height="20" rx="2" transform="rotate(7 421 250)"/>
    <rect x="250" y="300" width="34" height="22" rx="2" transform="rotate(-5 267 311)"/>
  </g>
  <g fill="#ff5a6a">
    <rect x="182" y="243" width="16" height="4" rx="2" transform="rotate(-8 190 245)"/>
    <rect x="410" y="245" width="16" height="4" rx="2" transform="rotate(7 418 247)"/>
    <rect x="256" y="305" width="16" height="4" rx="2" transform="rotate(-5 264 307)"/>
  </g>
  <!-- figure hunched over counter -->
  <circle cx="320" cy="196" r="17" fill="#1b2350"/>
  <path d="M320 180 a17 17 0 0 1 14 9 l-12 7 Z" fill="#ffcf8a" opacity="0.5"/>
  <path d="M298 252 Q296 214 320 210 Q346 214 344 252 Z" fill="#1b2350"/>
  <path d="M304 240 Q290 250 292 252 L348 252 Q352 248 340 240 Z" fill="#151b3e"/>
</svg>
