<svg xmlns="http://www.w3.org/2000/svg" width="640" height="360" viewBox="0 0 640 360">
  <defs>
    <radialGradient id="cool3" cx="50%" cy="50%" r="65%">
      <stop offset="0%" stop-color="#2f6f7a" stop-opacity="0.48"/>
      <stop offset="60%" stop-color="#1f8a94" stop-opacity="0.14"/>
      <stop offset="100%" stop-color="#1f8a94" stop-opacity="0"/>
    </radialGradient>
  </defs>
  <rect width="640" height="360" fill="#12102e"/>
  <rect y="272" width="640" height="88" fill="#0a0a1e"/>
  <circle cx="360" cy="170" r="300" fill="url(#cool3)"/>
  <g fill="#161436"><rect x="168" y="238" width="16" height="34" rx="3"/><rect x="292" y="238" width="16" height="34" rx="3"/></g>
  <!-- cab A: dim/dead amber -->
  <rect x="52" y="120" width="104" height="150" rx="12" fill="#171232" stroke="#2a2350" stroke-width="4"/>
  <rect x="66" y="134" width="76" height="56" rx="6" fill="#4a4030" stroke="#5c5240" stroke-width="3"/>
  <rect x="74" y="204" width="60" height="10" rx="5" fill="#2a2350"/>
  <!-- cab B: off, out of order -->
  <rect x="266" y="112" width="108" height="158" rx="12" fill="#171232" stroke="#2a2350" stroke-width="4"/>
  <rect x="282" y="126" width="76" height="58" rx="6" fill="#120f28" stroke="#2a2350" stroke-width="3"/>
  <rect x="296" y="150" width="48" height="9" rx="3" fill="#5c3030"/>
  <rect x="290" y="198" width="60" height="10" rx="5" fill="#2a2350"/>
  <!-- cab C: still warm (the one he keeps alive) -->
  <rect x="486" y="120" width="104" height="150" rx="12" fill="#1d1444" stroke="#3a2a6e" stroke-width="4"/>
  <rect x="500" y="134" width="76" height="56" rx="6" fill="#ffb84d" stroke="#ffe3a3" stroke-width="3"/>
  <rect x="508" y="204" width="60" height="10" rx="5" fill="#3a2a6e"/>
  <!-- lone maker, cool rim now -->
  <circle cx="360" cy="214" r="15" fill="#221b46"/>
  <path d="M360 199 a15 15 0 0 1 13 8 l-11 6 Z" fill="#3fd0d8" opacity="0.8"/>
  <path d="M343 272 Q343 232 360 228 Q377 232 377 272 Z" fill="#221b46"/>
  <path d="M373 238 Q377 252 375 272 L367 272 Q370 250 366 236 Z" fill="#3fd0d8" opacity="0.65"/>
</svg>
