<svg xmlns="http://www.w3.org/2000/svg" width="640" height="360" viewBox="0 0 640 360">
  <defs>
    <radialGradient id="warm2" cx="50%" cy="45%" r="65%">
      <stop offset="0%" stop-color="#ffcf6b" stop-opacity="0.68"/>
      <stop offset="55%" stop-color="#f2953a" stop-opacity="0.2"/>
      <stop offset="100%" stop-color="#f2953a" stop-opacity="0"/>
    </radialGradient>
  </defs>
  <rect width="640" height="360" fill="#160b30"/>
  <rect y="272" width="640" height="88" fill="#0d0722"/>
  <circle cx="320" cy="150" r="300" fill="url(#warm2)"/>
  <g opacity="0.5"><rect x="70" y="300" width="8" height="8" rx="2" fill="#ffcf6b"/><rect x="500" y="316" width="8" height="8" rx="2" fill="#ffcf6b"/></g>
  <rect x="300" y="322" width="8" height="8" rx="2" fill="#e0459e" opacity="0.5"/>
  <rect x="180" y="318" width="8" height="8" rx="2" fill="#3fd0d8" opacity="0.5"/>
  <rect x="560" y="302" width="8" height="8" rx="2" fill="#3fd0d8" opacity="0.5"/>
  <!-- cabinet A (amber) -->
  <rect x="52" y="120" width="104" height="150" rx="12" fill="#1d1444" stroke="#3a2a6e" stroke-width="4"/>
  <rect x="66" y="134" width="76" height="56" rx="6" fill="#ffb84d" stroke="#ffe3a3" stroke-width="3"/>
  <rect x="74" y="204" width="60" height="10" rx="5" fill="#3a2a6e"/>
  <!-- cabinet B (magenta) -->
  <rect x="266" y="112" width="108" height="158" rx="12" fill="#1d1444" stroke="#3a2a6e" stroke-width="4"/>
  <rect x="282" y="126" width="76" height="58" rx="6" fill="#e0459e" stroke="#ffb6dd" stroke-width="3"/>
  <rect x="290" y="198" width="60" height="10" rx="5" fill="#3a2a6e"/>
  <!-- cabinet C (cyan) -->
  <rect x="486" y="120" width="104" height="150" rx="12" fill="#1d1444" stroke="#3a2a6e" stroke-width="4"/>
  <rect x="500" y="134" width="76" height="56" rx="6" fill="#3fd0d8" stroke="#bff0f3" stroke-width="3"/>
  <rect x="508" y="204" width="60" height="10" rx="5" fill="#3a2a6e"/>
  <!-- players at cabinets -->
  <g fill="#241653">
    <circle cx="176" cy="214" r="13"/><path d="M162 270 Q162 232 176 228 Q190 232 190 270 Z"/>
    <circle cx="466" cy="214" r="13"/><path d="M452 270 Q452 232 466 228 Q480 232 480 270 Z"/>
  </g>
  <!-- the maker, center, warm rim -->
  <circle cx="320" cy="212" r="15" fill="#2a1a52"/>
  <path d="M320 197 a15 15 0 0 1 13 8 l-11 6 Z" fill="#e59a3c"/>
  <path d="M303 270 Q303 230 320 226 Q337 230 337 270 Z" fill="#2a1a52"/>
  <path d="M333 236 Q337 250 335 270 L327 270 Q330 248 326 234 Z" fill="#e59a3c"/>
</svg>
